%TF.GenerationSoftware,KiCad,Pcbnew,7.0.1*%
%TF.CreationDate,2023-10-09T09:12:30+02:00*%
%TF.ProjectId,ULN_PowerSupply_v2_0,554c4e5f-506f-4776-9572-537570706c79,rev?*%
%TF.SameCoordinates,Original*%
%TF.FileFunction,Copper,L2,Bot*%
%TF.FilePolarity,Positive*%
%FSLAX46Y46*%
G04 Gerber Fmt 4.6, Leading zero omitted, Abs format (unit mm)*
G04 Created by KiCad (PCBNEW 7.0.1) date 2023-10-09 09:12:30*
%MOMM*%
%LPD*%
G01*
G04 APERTURE LIST*
%TA.AperFunction,ComponentPad*%
%ADD10R,2.200000X2.200000*%
%TD*%
%TA.AperFunction,ComponentPad*%
%ADD11O,2.200000X2.200000*%
%TD*%
%TA.AperFunction,ComponentPad*%
%ADD12C,1.400000*%
%TD*%
%TA.AperFunction,ComponentPad*%
%ADD13R,3.000000X3.000000*%
%TD*%
%TA.AperFunction,ComponentPad*%
%ADD14C,3.000000*%
%TD*%
%TA.AperFunction,ComponentPad*%
%ADD15C,1.440000*%
%TD*%
%TA.AperFunction,ComponentPad*%
%ADD16R,2.400000X2.400000*%
%TD*%
%TA.AperFunction,ComponentPad*%
%ADD17C,2.400000*%
%TD*%
%TA.AperFunction,ComponentPad*%
%ADD18R,1.600000X1.600000*%
%TD*%
%TA.AperFunction,ComponentPad*%
%ADD19C,1.600000*%
%TD*%
%TA.AperFunction,ComponentPad*%
%ADD20R,2.000000X1.905000*%
%TD*%
%TA.AperFunction,ComponentPad*%
%ADD21O,2.000000X1.905000*%
%TD*%
%TA.AperFunction,ComponentPad*%
%ADD22C,2.000000*%
%TD*%
%TA.AperFunction,ComponentPad*%
%ADD23O,1.600000X1.600000*%
%TD*%
%TA.AperFunction,ComponentPad*%
%ADD24R,1.800000X1.800000*%
%TD*%
%TA.AperFunction,ComponentPad*%
%ADD25C,1.800000*%
%TD*%
%TA.AperFunction,Conductor*%
%ADD26C,1.500000*%
%TD*%
G04 APERTURE END LIST*
D10*
%TO.P,D2,1,K*%
%TO.N,Net-(D2-K)*%
X153670000Y-115062000D03*
D11*
%TO.P,D2,2,A*%
%TO.N,Net-(D2-A)*%
X143510000Y-115062000D03*
%TD*%
D12*
%TO.P,J5,1,Pin_1*%
%TO.N,Net-(J2-Pin_1)*%
X164064000Y-87122000D03*
%TO.P,J5,2,Pin_2*%
%TO.N,Net-(D2-A)*%
X161524000Y-87122000D03*
%TD*%
D13*
%TO.P,J3,1,Pin_1*%
%TO.N,Net-(J2-Pin_1)*%
X178054000Y-112268000D03*
D14*
%TO.P,J3,2,Pin_2*%
%TO.N,GND*%
X178054000Y-107188000D03*
%TD*%
D15*
%TO.P,Vout reg,1,1*%
%TO.N,Net-(D3-A)*%
X168900000Y-119126000D03*
%TO.P,Vout reg,2,2*%
X171440000Y-119126000D03*
%TO.P,Vout reg,3,3*%
%TO.N,GND*%
X173980000Y-119126000D03*
%TD*%
D16*
%TO.P,C2,1*%
%TO.N,Net-(J2-Pin_1)*%
X146558000Y-89451200D03*
D17*
%TO.P,C2,2*%
%TO.N,GND*%
X146558000Y-96951200D03*
%TD*%
D18*
%TO.P,C1,1*%
%TO.N,Net-(D2-K)*%
X130556000Y-91819300D03*
D19*
%TO.P,C1,2*%
%TO.N,GND*%
X130556000Y-95319300D03*
%TD*%
D20*
%TO.P,U1,1,ADJ*%
%TO.N,Net-(D3-A)*%
X132913000Y-114554000D03*
D21*
%TO.P,U1,2,VO*%
%TO.N,Net-(D2-A)*%
X132913000Y-117094000D03*
%TO.P,U1,3,VI*%
%TO.N,Net-(D2-K)*%
X132913000Y-119634000D03*
%TD*%
D22*
%TO.P,L1,1,1*%
%TO.N,Net-(D2-A)*%
X153060000Y-104902000D03*
%TO.P,L1,2,2*%
%TO.N,Net-(J2-Pin_1)*%
X172060000Y-104902000D03*
%TD*%
D19*
%TO.P,Rled1,1*%
%TO.N,Net-(J2-Pin_1)*%
X158750000Y-91440000D03*
D23*
%TO.P,Rled1,2*%
%TO.N,Net-(D1-A)*%
X166370000Y-91440000D03*
%TD*%
D13*
%TO.P,J1,1,Pin_1*%
%TO.N,Net-(D2-K)*%
X130302000Y-101346000D03*
D14*
%TO.P,J1,2,Pin_2*%
%TO.N,GND*%
X130302000Y-106426000D03*
%TD*%
D19*
%TO.P,R1,1*%
%TO.N,Net-(D2-A)*%
X136652000Y-107696000D03*
D23*
%TO.P,R1,2*%
%TO.N,Net-(D3-A)*%
X136652000Y-100076000D03*
%TD*%
D24*
%TO.P,D1,1,K*%
%TO.N,GND*%
X176535000Y-88138000D03*
D25*
%TO.P,D1,2,A*%
%TO.N,Net-(D1-A)*%
X173995000Y-88138000D03*
%TD*%
D10*
%TO.P,D3,1,K*%
%TO.N,Net-(D2-A)*%
X153416000Y-120396000D03*
D11*
%TO.P,D3,2,A*%
%TO.N,Net-(D3-A)*%
X143256000Y-120396000D03*
%TD*%
D13*
%TO.P,J2,1,Pin_1*%
%TO.N,Net-(J2-Pin_1)*%
X178054000Y-100584000D03*
D14*
%TO.P,J2,2,Pin_2*%
%TO.N,GND*%
X178054000Y-95504000D03*
%TD*%
D26*
%TO.N,Net-(D2-A)*%
X153060000Y-87122000D02*
X153060000Y-104902000D01*
X161524000Y-87122000D02*
X153060000Y-87122000D01*
X137459200Y-115062000D02*
X136652000Y-115062000D01*
X136652000Y-115062000D02*
X136652000Y-107696000D01*
X143510000Y-115062000D02*
X137459200Y-115062000D01*
X137459200Y-117094000D02*
X132913000Y-117094000D01*
X137459200Y-115062000D02*
X137459200Y-117094000D01*
%TO.N,GND*%
X173980000Y-107188000D02*
X178054000Y-107188000D01*
X173980000Y-119126000D02*
X173980000Y-107188000D01*
%TO.N,Net-(J2-Pin_1)*%
X158750000Y-91489800D02*
X164064000Y-91489800D01*
X158750000Y-91440000D02*
X158750000Y-91489800D01*
X164064000Y-91489800D02*
X164064000Y-87122000D01*
X172060000Y-100584000D02*
X164064000Y-100584000D01*
X172060000Y-104902000D02*
X172060000Y-100584000D01*
X164064000Y-100584000D02*
X164064000Y-91489800D01*
X178054000Y-100584000D02*
X172060000Y-100584000D01*
%TO.N,Net-(D2-K)*%
X132752400Y-101346000D02*
X132752400Y-110295100D01*
X132752400Y-101346000D02*
X130302000Y-101346000D01*
X132752400Y-110295100D02*
X130962600Y-110295100D01*
X132913000Y-119634000D02*
X139332000Y-119634000D01*
X139332000Y-119634000D02*
X139332000Y-117827800D01*
X130962600Y-119634000D02*
X132913000Y-119634000D01*
X132752400Y-91819300D02*
X132752400Y-101346000D01*
X130962600Y-110295100D02*
X130962600Y-119634000D01*
X153670000Y-117827800D02*
X153670000Y-115062000D01*
X139332000Y-117827800D02*
X153670000Y-117827800D01*
X130556000Y-91819300D02*
X132752400Y-91819300D01*
%TO.N,Net-(D3-A)*%
X132913000Y-114554000D02*
X134613300Y-114554000D01*
X134613300Y-114554000D02*
X134613300Y-100076000D01*
X134613300Y-100076000D02*
X136652000Y-100076000D01*
%TD*%
M02*
