M48
; DRILL file {KiCad 7.0.1} date Mon Oct  9 09:12:25 2023
; FORMAT={-:-/ absolute / metric / decimal}
; #@! TF.CreationDate,2023-10-09T09:12:25+02:00
; #@! TF.GenerationSoftware,Kicad,Pcbnew,7.0.1
; #@! TF.FileFunction,Plated,1,2,PTH
FMAT,2
METRIC
; #@! TA.AperFunction,Plated,PTH,ComponentDrill
T1C0.800
; #@! TA.AperFunction,Plated,PTH,ComponentDrill
T2C0.900
; #@! TA.AperFunction,Plated,PTH,ComponentDrill
T3C1.000
; #@! TA.AperFunction,Plated,PTH,ComponentDrill
T4C1.100
; #@! TA.AperFunction,Plated,PTH,ComponentDrill
T5C1.200
; #@! TA.AperFunction,Plated,PTH,ComponentDrill
T6C1.520
%
G90
G05
T1
X130.556Y-91.819
X130.556Y-95.319
X136.652Y-100.076
X136.652Y-107.696
X158.75Y-91.44
X161.524Y-87.122
X164.064Y-87.122
X166.37Y-91.44
X168.9Y-119.126
X171.44Y-119.126
X173.98Y-119.126
T2
X173.995Y-88.138
X176.535Y-88.138
T3
X153.06Y-104.902
X172.06Y-104.902
T4
X132.913Y-114.554
X132.913Y-117.094
X132.913Y-119.634
X143.256Y-120.396
X143.51Y-115.062
X153.416Y-120.396
X153.67Y-115.062
T5
X146.558Y-89.451
X146.558Y-96.951
T6
X130.302Y-101.346
X130.302Y-106.426
X178.054Y-95.504
X178.054Y-100.584
X178.054Y-107.188
X178.054Y-112.268
T0
M30
